<?xml version="1.0" standalone="no"?>
<!DOCTYPE svg PUBLIC "-//W3C//DTD SVG 20010904//EN"
 "http://www.w3.org/TR/2001/REC-SVG-20010904/DTD/svg10.dtd">
<svg version="1.0" xmlns="http://www.w3.org/2000/svg"
 width="20.000000pt" height="21.000000pt" viewBox="0 0 20.000000 21.000000"
 preserveAspectRatio="xMidYMid meet">

<g transform="translate(0.000000,21.000000) scale(0.100000,-0.100000)"
fill="#000000" stroke="none">
<path d="M10 179 c0 -5 4 -9 8 -9 15 0 32 -50 26 -76 -6 -24 -5 -24 57 -22 64
2 64 2 12 5 -62 5 -72 23 -13 23 34 0 42 4 56 31 8 17 12 35 7 39 -12 11 -153
19 -153 9z m140 -27 c0 -17 -26 -32 -56 -32 -23 0 -33 5 -37 20 -5 18 0 20 44
20 27 0 49 -4 49 -8z"/>
<path d="M47 53 c-12 -11 -8 -23 8 -23 8 0 15 7 15 15 0 16 -12 20 -23 8z"/>
<path d="M130 46 c0 -9 7 -16 16 -16 9 0 14 5 12 12 -6 18 -28 21 -28 4z"/>
</g>
</svg>
